 <svg xmlns="http://www.w3.org/2000/svg" width="1em" height="1em" fill="none" viewBox="0 0 24 24" class="w-6 h-6" stroke="none">
                      <g clip-path="url(#header_icon_wishlist_svg__a)">
                        <path stroke="#303030" stroke-linecap="round" stroke-linejoin="round" stroke-width="1.5" d="M12 20S3 14.91 3 8.727c0-1.093.375-2.152 1.06-2.997a4.672 4.672 0 0 1 2.702-1.638 4.639 4.639 0 0 1 3.118.463A4.71 4.71 0 0 1 12 6.909a4.71 4.71 0 0 1 2.12-2.354 4.639 4.639 0 0 1 3.118-.463 4.672 4.672 0 0 1 2.701 1.638A4.756 4.756 0 0 1 21 8.727C21 14.91 12 20 12 20Z"></path>
                      </g>
                      <defs>
                        <clipPath id="header_icon_wishlist_svg__a">
                          <path fill="#fff" d="M0 0h24v24H0z"></path>
                        </clipPath>
                      </defs>
                    </svg>