<?xml version="1.0" encoding="utf-8"?>
<!-- Generator: Adobe Illustrator 28.0.0, SVG Export Plug-In . SVG Version: 6.00 Build 0)  -->
<svg version="1.1" id="like" xmlns="http://www.w3.org/2000/svg" xmlns:xlink="http://www.w3.org/1999/xlink" x="0px" y="0px"
	 viewBox="0 0 80 24" style="enable-background:new 0 0 80 24;" xml:space="preserve">
<style type="text/css">
	.st0{fill:#FACC15;stroke:#000000;stroke-width:0.5;stroke-miterlimit:10;}
</style>
<path class="st0" d="M9.2,8.5H3.7c-1,0-1.8,0.8-1.8,1.8v10.5c0,1,0.8,1.8,1.8,1.8h5.5c1,0,1.8-0.8,1.8-1.8V10.2
	C11,9.3,10.2,8.5,9.2,8.5z M25.7,11c0-1.6-2.1-2.6-3.1-2.6h-4.2c0.7-3.1-0.1-4.9-0.8-5.7c-0.6-0.8-1.4-1.3-2.2-1.3
	c-0.6,0-1.1,0.3-1.4,0.8C14,2.4,14,2.5,14,2.6v2.7c-0.6,1.7-1.2,3.1-2,4.1v12c0.2,0.1,0.4,0.1,0.5,0.1h9.2c0.4,0,0.9-0.2,1.2-0.6
	c0.5-0.6,0.9-1.5,0.9-2.3c0.7-0.6,1.1-1.6,1-3c0.8-0.8,0.8-2,0.5-2.8C25.7,12.4,25.7,11.6,25.7,11z"/>
</svg>
